<?xml version="1.0" encoding="utf-8"?>
<!-- Generator: Adobe Illustrator 23.0.3, SVG Export Plug-In . SVG Version: 6.00 Build 0)  -->
<svg version="1.1" id="Layer_1" xmlns="http://www.w3.org/2000/svg" xmlns:xlink="http://www.w3.org/1999/xlink" x="0px" y="0px"
	 viewBox="0 0 723 111" style="enable-background:new 0 0 723 111;" xml:space="preserve">
<style type="text/css">
	.st0{fill:none;}
	.st1{fill:#FFFFFF;}
</style>
<rect id="backgroundrect" y="0" class="st0" width="723" height="111"/>
<g>
	<title>Layer 1</title>
	<g id="svg_1">
		<path id="svg_2" class="st1" d="M100.5,102.2c-0.8-1-1.5-2-2.2-3c-3.4-4.4-6.8-8.7-10.1-13.1c-2.5-3.3-4.8-6.7-7.1-10.2
			c-1.5-2.2-2.9-4.6-4.3-7c-0.2-0.3-0.1-0.9,0.1-1.2c3-4.9,6.2-9.7,9.2-14.7c3.5-5.7,6.3-11.8,7.9-18.3c0.7-2.8,1.2-5.7,1.8-8.5
			c0.2-0.8,0-1.7,0-2.7c2.5,0.9,4.6,1.8,6.4,3.4c3.8,3.3,6.1,7.6,7.8,12.3c0.1,0.2,0.1,0.4,0.2,0.6c0.1,0.1,0.2,0.2,0.3,0.4
			c0.5-0.6,0.9-1.2,1.3-1.7c3.5-3.6,6.8-7.5,11.9-8.8c4.1-1.1,8.1-1,12.2,0.2c4,1.2,7.5,3.2,10.4,6.2c2.4,2.6,4,5.6,4.4,9.1
			c0.1,0.5,0.3,1,0.4,1.5c0,1.3,0,2.5,0,3.8c-0.1,0.2-0.2,0.3-0.2,0.5c-0.2,1.2-0.3,2.4-0.7,3.6c-0.9,2.4-1.9,4.7-3.1,7
			c-2,3.8-4.6,7.1-7.5,10.2c-2,2.1-4.1,4.1-6.3,5.9c-3.6,3.1-7.1,6.2-10.9,9c-4.5,3.4-9.1,6.6-13.7,9.8
			C106,98.4,103.3,100.2,100.5,102.2C100.6,102.2,100.6,102.2,100.5,102.2z"/>
		<path id="svg_3" class="st1" d="M56.7,89.6c-5.2-3.4-10.3-6.7-15.3-10.2c-4.9-3.4-9.8-6.9-14.5-10.6c-3.2-2.4-6.1-5.2-9.1-7.8
			c-1.9-1.7-3.7-3.4-5.4-5.3c-3.7-4-7.2-8.2-9.5-13.1c-1.5-3.1-2.4-6.4-2.8-10s0-7,1.3-10.3s3.3-6.2,6.1-8.4
			c3.4-2.8,7.2-4.6,11.5-5.6c3.1-0.7,6.2-0.7,9.3-0.2c4.4,0.7,7.9,3,11,5.9c2,1.9,3.8,4,5.8,6c0.5-1.2,1-2.4,1.5-3.6
			c1.8-4.2,4-8.3,7.6-11.2c1.9-1.5,4.1-2.5,6.3-3.5c3.6-1.6,7.4-1.9,11.2-1.6c4.8,0.4,9.5,1.7,13.2,4.9c3.6,3.1,6,7.1,7,11.8
			c0.6,2.6,0.8,5.3,0.5,7.9c-0.4,3.3-1.2,6.6-1.9,9.8c-1,3.9-2.4,7.6-4.3,11.2c-3.2,6-6.6,11.9-10.5,17.5c-3.6,5.2-7.2,10.4-11,15.5
			c-2.3,3.2-4.8,6.2-7.3,9.3C57.2,88.6,57,89.1,56.7,89.6z"/>
	</g>
	<g id="svg_4">
		<path id="svg_5" class="st1" d="M160.3,60.9c0.1-1.2,0.3-2.3,0.4-3.5c1.7-11.2,7.4-19.7,17.4-24.8c11.3-5.8,22.5-5.1,33.3,1.6
			c1.8,1.1,1.9,1.9,0.7,3.5c-2.1,3-4.3,6.1-6.4,9.1c-1.2,1.8-1.4,1.8-3.3,0.6c-2.8-1.9-5.9-2.9-9.3-2.9c-6.8,0-12.4,3.7-15.1,10
			c-3.2,7.5-1,16.3,5.3,21.1c5.3,4,12.8,4.3,18.6,0.7c0.3-0.2,0.6-0.4,0.9-0.6c1.4-1,1.9-0.9,2.9,0.5c2.3,3.2,4.5,6.5,6.8,9.7
			c0.9,1.4,0.8,2.2-0.6,3.1c-4.5,2.9-9.3,4.9-14.6,5.4c-7.2,0.8-14.1-0.4-20.4-4.1C168,85,162.6,77.2,160.8,67
			c-0.3-1.5-0.3-2.9-0.5-4.4C160.3,62.2,160.3,61.5,160.3,60.9z"/>
		<path id="svg_6" class="st1" d="M557.6,47.5c0.8-1.1,1.6-2,2.3-2.9c3.1-4.1,7.2-6.1,12.4-6.2c14.1-0.3,24.8,9.7,27,22.5
			c1.5,8.8,0,16.9-5.5,24c-4.2,5.5-9.9,8.7-16.8,9.7c-3.1,0.4-6.2,0.6-9.2-0.4c-3.1-1-5.4-3-7.5-5.4c-0.3-0.3-0.6-0.6-0.9-1
			c0,0-0.1,0-0.4,0c0,0.4,0,0.8,0,1.2c0,6.2,0,12.3,0,18.5c0,2.3-1,3.3-3.3,3.3c-3.1,0-6.2,0-9.4,0c-2.4,0-3.7-1.3-3.7-3.7
			c0-21.5,0-43,0-64.5c0-2,1.4-3.7,3.6-3.6c2.1,0.1,4.2,0.1,6.3,0c1.4,0,2.3,0.6,2.7,1.8c0.7,1.8,1.3,3.6,1.9,5.4
			C557.2,46.5,557.4,46.9,557.6,47.5z M571.6,53c-0.7,0-1.3-0.1-2,0c-5.6,1-9.5,4.2-11.2,9.6c-1.6,5.3-0.3,10.1,3.7,14
			c6.1,5.8,15.7,4.8,19.8-2.1c2.9-4.9,3-10,0.4-15C580.1,55.2,576.5,53,571.6,53z"/>
		<path id="svg_7" class="st1" d="M380.4,57.6c0.2-0.3,0.3-0.7,0.6-1c4.6-5.1,9.3-10.2,13.8-15.4c1.3-1.5,2.7-2.2,4.7-2.1
			c4.1,0.1,8.2,0,12.4,0c0.8,0,1.5,0.2,1.9,1c0.3,0.8,0.1,1.5-0.5,2.1c-0.1,0.2-0.3,0.3-0.4,0.5c-2.4,2.5-4.8,5.1-7.2,7.6
			c-3.2,3.4-6.4,6.8-9.6,10.2c-0.2,0.2-0.4,0.5-0.7,0.8c1.6,2,3.1,4,4.7,6.1C406,75,412,82.7,417.9,90.3c0.3,0.3,0.5,0.8,0.6,1.2
			c0.5,1.3,0,2.1-1.3,2.3c-0.4,0.1-0.8,0.1-1.2,0.1c-4.3,0-8.7,0-13,0c-1.5,0-2.6-0.6-3.4-1.8c-2.2-3.1-4.4-6.2-6.6-9.3
			c-2.4-3.4-4.8-6.8-7.3-10.3c-0.2-0.3-0.5-0.6-0.5-0.7c-1.6,1.5-3.3,3-4.8,4.5c-0.3,0.3-0.3,0.9-0.3,1.4c0,4,0,8,0,12
			c0,0.5,0,1-0.1,1.5c-0.2,1.7-1.2,2.7-2.9,2.7c-3.5,0-6.9,0-10.4,0c-1.6,0-2.9-1.3-3-2.9c0-0.2,0-0.5,0-0.7c0-21.6,0-43.2,0-64.7
			c0-2,0.6-2.6,2.6-2.6c3.7,0,7.5,0,11.2,0c1.5,0,2.4,1,2.5,2.6c0,1.3,0,2.6,0,3.8c0,8.9,0,17.8,0,26.7c0,0.4,0,0.8,0,1.2
			C380.1,57.4,380.2,57.5,380.4,57.6z"/>
		<path id="svg_8" class="st1" d="M448.1,28.5c7.7-0.2,14.1,2.3,19.7,7c0.5,0.4,1,0.9,1.4,1.4c1.3,1.4,1.3,2.4,0,3.8
			c-1.8,2-3.6,3.9-5.5,5.8c-0.3,0.4-0.7,0.7-1,1.1c-1.1,1.2-2,1.2-3.3,0.2c-1-0.8-2-1.7-3-2.4c-3.2-2.3-6.8-3.4-10.8-2.4
			c-2.6,0.7-3.8,2.3-3.6,4.7c0.1,1.2,0.7,2.2,1.7,2.7c1.7,0.9,3.4,1.8,5.2,2.5c3.8,1.5,7.6,2.7,11.4,4.2c4,1.6,7.5,4,10,7.7
			c1.4,2.2,2.1,4.6,2.3,7.2c0.9,12.6-7.8,19.5-16.7,21.7c-12.2,3-22.4-0.6-31.1-9.3c-0.4-0.4-0.9-0.9-1.3-1.4
			c-1-1.1-0.9-1.8,0.1-2.9c1.6-1.5,3.2-3.1,4.8-4.6c0.9-0.8,1.7-1.6,2.6-2.4c1.1-1,1.9-1,3.1-0.1c2.1,1.6,4.1,3.3,6.3,4.8
			c3.3,2.1,6.9,2.9,10.8,1.9c2.6-0.7,4-2.2,4.4-4.9c0.2-1.6-0.4-2.8-1.6-3.8c-2.2-1.9-4.9-2.7-7.6-3.7c-4.9-1.7-9.7-3.8-13.9-7
			c-7-5.4-8.4-13.9-5.6-20.7c2.1-5,6.2-7.9,11.1-9.6C441.4,28.9,444.8,28.4,448.1,28.5z"/>
		<path id="svg_9" class="st1" d="M316.5,71.5c0,1.5,0.5,2.7,1.1,3.9c2,3.5,5.1,5.3,9,5.8c5,0.6,9.6-0.7,13.5-3.9
			c1.6-1.3,2.5-1.3,4,0.2c1.8,1.9,3.5,3.8,5.2,5.8c1,1.1,0.7,2.6-0.5,3.7c-4.2,3.8-8.9,6.5-14.5,7.5c-13.4,2.4-27-5.4-31.8-18.1
			c-5.3-14.2,1.7-31.2,16.3-36.4c15.3-5.5,32.5,4.3,35.4,20.4c0.5,2.6,0.3,5.4,0.2,8.1c0,1.8-1.1,2.7-2.9,3
			c-1.2,0.2-2.4,0.2-3.6,0.2c-9.9,0-19.8,0-29.7,0C317.6,71.5,317.1,71.5,316.5,71.5z M317.1,59.3c7.4,0,14.7,0,22,0
			c-2.9-6.1-7.1-8.1-11.9-8C323.4,51.4,318.3,55.4,317.1,59.3z"/>
		<path id="svg_10" class="st1" d="M622.7,71.5c0.7,4.1,2.8,6.9,6.4,8.5c4.7,2.1,9.4,1.4,13.9-0.7c1.2-0.5,2.3-1.3,3.3-2.1
			c1.6-1.3,2.6-1.4,4.1,0.1c1.8,1.9,3.5,3.8,5.2,5.8c0.9,1,0.7,2.5-0.2,3.4c-4.5,4.4-9.8,7.3-16.2,8c-9.1,1-17-1.7-23.7-8
			c-4.7-4.4-7.5-9.9-8.3-16.3c-1.1-9,1.3-17,7.5-23.7c4.4-4.7,9.8-7.3,16.2-8.1c13.7-1.7,25.6,7.7,28.9,19.3c1,3.6,1.1,7.2,0.7,10.9
			c-0.1,1.2-0.8,2-1.9,2.3c-0.9,0.2-1.9,0.4-2.9,0.4c-10.5,0-21,0-31.5,0C623.8,71.5,623.3,71.5,622.7,71.5z M645.3,59.3
			c-1.5-4.8-7-8.4-12.1-8c-3.8,0.3-9.3,4.8-9.7,8C630.7,59.3,638,59.3,645.3,59.3z"/>
		<path id="svg_11" class="st1" d="M495.5,71.5c0.5,3.5,2.1,6,4.8,7.7c4.1,2.6,8.4,2.6,12.9,1.2c2.2-0.7,4.3-1.7,6.1-3.3
			c1.4-1.2,2.4-1.3,3.7,0.1c1.9,1.9,3.7,4,5.4,6c0.9,1,0.6,2.6-0.5,3.6c-3.6,3.3-7.6,5.9-12.4,7.1c-15.3,3.9-31.7-5.4-35.1-21.4
			c-2.8-13,3.3-26.1,14.9-31.6c16.5-7.8,34.6,2.7,37.8,19c0.5,2.8,0.3,5.7,0.3,8.6c0,1.5-1.1,2.5-2.8,2.7c-1.2,0.2-2.5,0.2-3.7,0.2
			c-9.9,0-19.8,0-29.7,0C496.6,71.5,496.1,71.5,495.5,71.5z M518.1,59.3c-1.4-4.8-6.9-8.4-12.1-8c-3.8,0.3-9.3,4.7-9.8,8
			C503.5,59.3,510.8,59.3,518.1,59.3z"/>
		<path id="svg_12" class="st1" d="M275.3,94.8c-12.3,0.3-25.1-8.4-27.6-23.3c-1.6-9.4,0.9-17.9,7.6-24.8c4.5-4.7,10.2-7.4,16.7-8.2
			c7.1-0.8,13.6,0.6,19.5,4.6c2,1.4,2.5,2.9,1.2,5c-1.2,2.1-2.4,4.1-3.6,6.2c-1.4,2.3-2.8,2.6-5.1,1.2c-2.8-1.8-5.8-3-9.3-2.8
			c-4.7,0.3-8.1,2.6-10.2,6.8c-2.7,5.6-2.5,11.1,1.3,16.1c3.2,4.3,9,5.7,14,3.7c1.4-0.6,2.8-1.4,4.1-2.2c1.9-1.2,3.4-0.9,4.6,1
			c1.5,2.3,3.1,4.6,4.6,6.9c1.2,1.9,1.1,2.8-0.8,4.2C287.2,92.8,281.6,95,275.3,94.8z"/>
		<path id="svg_13" class="st1" d="M689.7,73c0,5.7-0.1,11.5,0,17.2c0,2.8-1.6,3.6-3.7,3.6c-3.1,0-6.2,0-9.2,0c-2.6,0-3.6-1-3.6-3.6
			c0-11.6,0-23.2,0-34.8c0-1.5,0-1.5-1.5-1.5c-1.1,0-2.3,0-3.4,0c-1.6,0-2.7-1-2.7-2.5c-0.1-3.3-0.1-6.6,0-9.9
			c0-1.5,1.1-2.4,2.6-2.5c1.2-0.1,2.5,0,3.7,0c1.4,0,1.4,0,1.4-1.3c0-2.3,0.1-4.5,0-6.8c0-1.5,0.5-2.6,1.9-3.1
			c3.1-1.1,6.2-2.2,9.3-3.3c0.8-0.3,1.6-0.6,2.4-0.7c2.1-0.2,2.9,0.6,3,2.7c0,3.5,0,7.1,0,10.6c0,2.1-0.3,1.9,1.9,1.9
			c1.4,0,2.8,0,4.2,0c1.9,0,2.9,1,2.9,2.8c0.1,3.1,0.1,6.2,0,9.2c0,2-1,2.8-3,2.9c-1.6,0-3.1,0.1-4.7,0c-1,0-1.3,0.3-1.3,1.3
			C689.7,61.2,689.7,67.1,689.7,73L689.7,73z"/>
		<path id="svg_14" class="st1" d="M222.1,66.5c0-8,0-15.9,0-23.9c0-2.6,0.9-3.5,3.5-3.5c3,0,6.1,0,9.1,0c2.2,0,3.7,1.5,3.7,3.7
			c0,15.9,0,31.7,0,47.6c0,2.4-1.1,3.5-3.5,3.5c-3.2,0-6.4,0-9.7,0c-2.2,0-3.2-1-3.2-3.3C222.1,82.6,222.1,74.6,222.1,66.5z"/>
		<path id="svg_15" class="st1" d="M707,66.6c0-8,0-15.9,0-23.9c0-0.6,0-1.2,0.2-1.7c0.4-1.2,1.2-1.8,2.5-1.8c3.5,0,6.9,0,10.4,0
			c1.8,0,3.2,1.6,3.2,3.5c0,16,0,31.9,0,47.9c0,2.2-1,3.3-3.3,3.4c-3.4,0.1-6.7,0.1-10.1,0c-2.1,0-3-1.1-3-3.2
			C707,82.7,707,74.6,707,66.6z"/>
		<path id="svg_16" class="st1" d="M715.1,17.3c1.8,0,3.5,0,5.3,0c1.9,0,2.9,1,3,2.9c0,2.9,0,5.8,0,8.6c0,2.1-1.5,3.5-3.5,3.5
			c-3.2,0-6.4,0-9.6,0c-2.3,0-3.2-1-3.2-3.2c0-3,0-6,0-8.9c0-2.1,0.9-3,3-3C711.7,17.3,713.4,17.3,715.1,17.3z"/>
		<path id="svg_17" class="st1" d="M230.1,17.3c1.8,0,3.5,0,5.3,0c1.9,0,3,1,3,2.9c0,2.9,0,5.7,0,8.6c0,2.1-1.5,3.6-3.6,3.6
			c-3.1,0-6.3,0-9.4,0c-2.4,0-3.3-0.9-3.3-3.4c0-3,0-5.9,0-8.9c0-2,0.9-2.8,2.9-2.8C226.7,17.3,228.4,17.3,230.1,17.3z"/>
	</g>
</g>
</svg>
