<?xml version="1.0" encoding="utf-8"?>
<!-- Generator: Adobe Illustrator 23.0.3, SVG Export Plug-In . SVG Version: 6.00 Build 0)  -->
<svg version="1.1" id="Layer_1" xmlns="http://www.w3.org/2000/svg" xmlns:xlink="http://www.w3.org/1999/xlink" x="0px" y="0px"
	 viewBox="0 0 601.7 452.6" style="enable-background:new 0 0 601.7 452.6;" xml:space="preserve">
<style type="text/css">
	.st0{fill:#FFFFFF;}
</style>
<title>logo-icon2</title>
<g>
	<path class="st0" d="M400.1,430.5c-3-3.9-5.9-7.9-8.9-11.8c-13.4-17.3-27.1-34.5-40.2-52.1c-9.8-13.1-19.1-26.7-28.2-40.3
		c-6-8.9-11.4-18.3-16.9-27.6c-0.7-1.1-0.4-3.4,0.3-4.6c12.1-19.4,24.5-38.6,36.4-58.2c13.9-22.7,25-46.8,31.4-72.7
		c2.7-11.2,4.9-22.5,7-33.9c0.6-3.3,0.1-6.7,0.1-10.9c9.8,3.6,18.2,7.1,25.2,13.3c15,13.2,24.2,30.2,30.9,48.7
		c0.3,0.8,0.5,1.7,0.9,2.5c0.2,0.5,0.6,0.8,1.2,1.6c1.9-2.4,3.4-4.7,5.3-6.7c13.8-14.4,27-29.6,47.4-34.9
		c16.1-4.2,32.3-4.1,48.3,0.6c15.8,4.7,29.9,12.5,41.2,24.6c9.5,10.2,15.8,22.2,17.6,36.2c0.3,2.1,1.1,4.1,1.6,6.1
		c0,5,0,10.1,0,15.1c-0.3,0.6-0.7,1.3-0.9,1.9c-0.9,4.7-1,9.7-2.7,14.1c-3.6,9.4-7.6,18.7-12.3,27.7c-7.8,15-18.2,28.3-29.6,40.6
		c-7.8,8.4-16.3,16.1-25,23.5c-14.1,12.2-28.2,24.5-43.1,35.8c-17.8,13.5-36.3,26.1-54.5,39c-10.6,7.5-21.3,14.8-32,22.2
		C400.6,430.5,400.3,430.5,400.1,430.5z"/>
	<path class="st0" d="M226.2,380.4c-20.5-13.6-40.8-26.7-60.6-40.5c-19.5-13.5-38.7-27.4-57.5-41.9c-12.5-9.7-24.2-20.5-36-31.1
		c-7.5-6.7-14.8-13.6-21.6-20.9c-14.8-15.7-28.6-32.3-37.8-52C6.8,181.6,3,168.5,1.5,154.5c-1.5-14.2,0-27.6,5-40.7
		c5.1-13.2,13.2-24.4,24.3-33.5c13.5-11.1,28.6-18.4,45.5-22.1c12.2-2.7,24.5-2.8,37-0.7c17.4,2.9,31.3,11.8,43.6,23.6
		c7.9,7.5,15.1,15.7,23,23.9c1.9-4.7,3.8-9.5,5.9-14.3c7.1-16.8,15.7-32.8,30.2-44.3c7.4-5.9,16.3-10.1,25-14
		c14.1-6.3,29.4-7.6,44.6-6.4c19.2,1.6,37.5,6.8,52.5,19.6c14.4,12.4,23.7,28.1,27.7,47c2.2,10.4,3.2,20.9,2,31.3
		c-1.6,13.1-4.6,26.1-7.7,38.9c-3.8,15.4-9.5,30.3-16.9,44.3c-12.6,23.9-26.3,47.3-41.7,69.6c-14.3,20.7-28.7,41.2-43.5,61.5
		c-9.2,12.6-19.2,24.7-28.8,37C228.2,376.8,227.3,378.6,226.2,380.4z"/>
</g>
</svg>
